<?xml version="1.0" encoding="utf-8"?>
<!-- Generator: Adobe Illustrator 22.1.0, SVG Export Plug-In . SVG Version: 6.00 Build 0)  -->
<svg version="1.1" id="Layer_1" xmlns="http://www.w3.org/2000/svg" xmlns:xlink="http://www.w3.org/1999/xlink" x="0px" y="0px"
	 viewBox="0 0 32 32" style="enable-background:new 0 0 32 32;" xml:space="preserve">
<title>launchpad</title>
<path d="M29.3,24.9l-5.9-3.4L17,25.2V32L29.3,24.9z M15,32v-6.8l-6.4-3.7l-5.9,3.4L15,32z M16,23.4l6.4-3.7v-7.4L16,8.6l-6.4,3.7
	v7.4L16,23.4z M1.6,8.9v14.2l5.9-3.4v-7.4L1.6,8.9L1.6,8.9z M27.8,10.4l-3.3,1.9v7.4l5.9,3.4V8.9L27.8,10.4z M2.7,7.1l5.9,3.4
	L15,6.8V0L2.7,7.1z M23.4,10.5l5.9-3.4L17,0v6.8L23.4,10.5z"/>
</svg>
